<?xml version="1.0" encoding="UTF-8" standalone="no"?>
<!-- Created with Inkscape (http://www.inkscape.org/) -->

<svg
   xmlns:dc="http://purl.org/dc/elements/1.1/"
   xmlns:cc="http://creativecommons.org/ns#"
   xmlns:rdf="http://www.w3.org/1999/02/22-rdf-syntax-ns#"
   xmlns:svg="http://www.w3.org/2000/svg"
   xmlns="http://www.w3.org/2000/svg"
   xmlns:sodipodi="http://sodipodi.sourceforge.net/DTD/sodipodi-0.dtd"
   xmlns:inkscape="http://www.inkscape.org/namespaces/inkscape"
   id="svg3009"
   version="1.1"
   inkscape:version="0.48.4 r9939"
   width="235"
   height="235"
   sodipodi:docname="chef_active.svg">
  <metadata
     id="metadata3015">
    <rdf:RDF>
      <cc:Work
         rdf:about="">
        <dc:format>image/svg+xml</dc:format>
        <dc:type
           rdf:resource="http://purl.org/dc/dcmitype/StillImage" />
        <dc:title></dc:title>
      </cc:Work>
    </rdf:RDF>
  </metadata>
  <defs
     id="defs3013" />
  <sodipodi:namedview
     pagecolor="#ffffff"
     bordercolor="#666666"
     borderopacity="1"
     objecttolerance="10"
     gridtolerance="10"
     guidetolerance="10"
     inkscape:pageopacity="0"
     inkscape:pageshadow="2"
     inkscape:window-width="1920"
     inkscape:window-height="1018"
     id="namedview3011"
     showgrid="false"
     inkscape:zoom="4.0170213"
     inkscape:cx="152.56135"
     inkscape:cy="94.075738"
     inkscape:window-x="-8"
     inkscape:window-y="-8"
     inkscape:window-maximized="1"
     inkscape:current-layer="svg3009" />
  <path
     style="fill:#338000"
     d="m 118.78129,3.5620338 c -1.22178,0.0113 -2.46926,0.0512 -3.75,0.0937 -17.977955,0.59795 -26.813591,3.01866 -37.968741,10.4062502 l -6.84375,4.53125 -10.03125,-0.625 c -18.65635,-1.15614 -36.58314,4.27387 -46.40625,14.03125 -6.0499501,6.00947 -8.4083401,10.70049 -9.2187504,18.5 -0.91731,8.8284 1.8735503,15.49676 9.3437504,22.4375 11.22635,10.43066 23.48327,14.16686 44.40625,13.53125 11.11404,-0.33763 12.66847,-0.17776 9.8125,1.03125 -1.86247,0.78843 -4.08279,1.47048 -4.90625,1.5 -1.05022,0.0376 -1.5,2.52533 -1.5,8.375 l 0,8.343746 59.593741,-0.3125 59.59375,-0.3125 0.34375,-7.968746 0.375,-8 4.4375,-0.65625 c 22.83773,-3.4613 35.61379,-10.75137 41.75,-23.8125 8.21038,-17.47608 -2.10497,-35.20675 -25.34375,-43.59375 -5.76263,-2.07977 -10.19726,-2.65366 -22.34375,-2.84375 -13.01169,-0.20364 -15.62698,-0.56745 -18.5625,-2.625 C 149.03187,6.8102738 137.10794,3.3920838 118.78129,3.5619838 z m 61.53125,103.3124962 -59,0.28125 -58.968741,0.3125 -0.375,3.625 c -0.23338,2.36601 -1.27014,3.99585 -3,4.75 -2.37064,1.0335 -2.65449,2.171 -2.96875,11.09375 -0.38047,10.80285 0.59614,13.25 5.28125,13.25 1.56626,0 2.86195,0.41548 2.875,0.90625 0.1719,6.46768 3.87942,30.90205 5.15625,33.9375 l 1.6875,4 -5.21875,2.75 c -2.91304,1.53502 -5.25,3.63823 -5.25,4.71875 0,1.06864 4.52618,6.4043 10.0625,11.875 8.47418,8.37374 10.51199,9.8547 12.9375,9.25 2.46033,-0.61336 3.10597,-0.1422 4.375,3.34375 2.93402,8.05956 14.152591,17.05982 24.718741,19.8125 6.24657,1.62737 18.58975,0.12868 25.15625,-3.0625 7.40261,-3.59753 11.33443,-7.5786 16.09375,-16.15625 1.99418,-3.59406 3.64425,-5.84919 3.65625,-5.03125 0.0119,0.81795 0.95468,1.46875 2.09375,1.46875 2.74437,0 21.875,-18.96597 21.875,-21.6875 0,-1.33418 -1.97302,-3.07592 -5.3125,-4.6875 l -5.3125,-2.5625 1.78125,-3.4375 c 0.98495,-1.89195 2.67021,-10.64325 3.71875,-19.4375 1.78659,-14.9846 2.05387,-16 4.46875,-16 4.46901,0 5.46875,-2.27388 5.46875,-12.6875 0,-9.19108 -0.20519,-9.99354 -3,-11.8125 -2.05241,-1.33581 -3,-3.01468 -3,-5.375 l 0,-3.4375 z m -84.093745,12.25 c 13.746295,0.27792 24.427215,15.2875 17.187495,30.65625 -4.33439,9.61537 -16.562455,12.24728 -26.187491,8.8125 -21.58244,-6.84573 -13.03588,-37.95692 7.65625,-39.4375 0.449296,-0.0222 0.900326,-0.0402 1.343746,-0.0312 z m 52.062495,0.15625 c 13.74631,0.27791 24.42722,15.2875 17.1875,30.65625 -4.33439,9.61536 -16.56246,12.24728 -26.1875,8.8125 -21.58245,-6.84573 -13.03587,-37.95693 7.65625,-39.4375 0.4493,-0.0222 0.90032,-0.0402 1.34375,-0.0312 z m -26.53125,51.03125 c 12.28382,-0.4048 22.06001,10.37743 23.84375,22.0625 1.73381,11.35796 -4.0856,23.58282 -22.53125,27.21875 -13.10952,-0.3226 -21.22428,-4.38166 -24.843745,-13.8125 -5.233186,-13.07978 1.12973,-32.53059 22.343745,-35.375 0.40126,-0.0367 0.79125,-0.0807 1.1875,-0.0937 z m -5.375,6.59375 c -14.33454,1.59632 -19.869835,23.79588 -7.59375,31.71875 7.60291,6.31828 8.83289,9.28511 27.0625,0 5.34247,-7.70337 4.78239,-22.35762 -2.90625,-28.3125 -4.51194,-3.66499 -8.84025,-3.20671 -16.5625,-3.40625 z m 4.1875,1.625 c 3.21117,0 5.8125,2.39943 5.8125,5.34375 0,2.94432 -2.60133,5.34375 -5.8125,5.34375 -3.21117,0 -5.8125,-2.39943 -5.8125,-5.34375 0,-2.94432 2.60133,-5.34375 5.8125,-5.34375 z m -10.875,9.78125 c 3.21117,0 5.8125,2.39943 5.8125,5.34375 0,2.94432 -2.60133,5.3125 -5.8125,5.3125 -3.21117,0 -5.8125,-2.36818 -5.8125,-5.3125 0,-2.94432 2.60133,-5.34375 5.8125,-5.34375 z m -52.406241,0.65625 c -2.00715,0 -5.125,6.25454 -5.125,10.25 0,2.34405 1.91392,5.13545 7,10.1875 5.60911,5.57157 7.74365,6.9375 10.8125,6.9375 4.10168,0 9.71875,-2.97731 9.71875,-5.15625 0,-1.82946 -20.55966,-22.21875 -22.40625,-22.21875 z m 127.406241,0 c -1.83723,0 -22.34375,20.42092 -22.34375,22.25 0,0.8107 1.46964,2.27376 3.28125,3.25 6.44218,3.47154 10.014,2.46756 17.4375,-4.90625 5.57377,-5.53648 6.84375,-7.50379 6.84375,-10.75 0,-4.21702 -2.98789,-9.84375 -5.21875,-9.84375 z m -52.9375,0.6875 c 3.21117,0 5.8125,2.36818 5.8125,5.3125 0,2.94432 -2.60133,5.34375 -5.8125,5.34375 -3.21117,0 -5.8125,-2.39943 -5.8125,-5.34375 0,-2.94432 2.60133,-5.3125 5.8125,-5.3125 z m -11.03125,11.25 c 3.21117,0 5.8125,2.39943 5.8125,5.34375 0,2.94432 -2.60133,5.3125 -5.8125,5.3125 -3.21117,0 -5.8125,-2.36818 -5.8125,-5.3125 0,-2.94432 2.60133,-5.34375 5.8125,-5.34375 z"
     id="path3038"
     inkscape:connector-curvature="0" />
  <path
     style="fill:#000000"
     d=""
     id="path3046"
     inkscape:connector-curvature="0" />
</svg>
